<?xml version="1.0" encoding="utf-8"?>
<!-- Generator: Adobe Illustrator 17.0.0, SVG Export Plug-In . SVG Version: 6.00 Build 0)  -->
<!DOCTYPE svg PUBLIC "-//W3C//DTD SVG 1.1//EN" "http://www.w3.org/Graphics/SVG/1.1/DTD/svg11.dtd">
<svg version="1.1" id="Layer_1" xmlns="http://www.w3.org/2000/svg" xmlns:xlink="http://www.w3.org/1999/xlink" x="0px" y="0px"
	 width="754px" height="1702.019px" viewBox="0 0 754 1702.019" enable-background="new 0 0 754 1702.019" xml:space="preserve">
<g id="Background_xA0_Image_1_">
</g>
<g id="loading2_1_">
	<g id="band_1_">
		<path fill="#131313" d="M712.878,680.948c0,0-190.048-234.948-126.048-680.948H196c0,0,150,262,146,532"/>
		<path fill="#131313" d="M41.561,680.948c0,0,190.048-234.948,126.048-680.948h390.83c0,0-149.999,262-145.999,532"/>
		<path fill="#131313" d="M712.658,1021.07c0,0-190.048,234.948-126.048,680.948H195.78c0,0,150-262,146-532"/>
		<path fill="#131313" d="M41.341,1021.07c0,0,190.048,234.948,126.048,680.948h390.83c0,0-149.999-262-145.999-532"/>
	</g>
	<g id="gerd_1_">
		<g id="Ellipse_5">
			<g>
				<circle fill="#4D423A" cx="377" cy="852" r="377"/>
			</g>
		</g>
		<g id="Ellipse_5_copy">
			<g>
				<circle fill="#1E1E1E" cx="377" cy="852" r="359"/>
			</g>
		</g>
		<g id="Rectangle_1">
			<g>
				<rect x="371" y="1129" fill="#4D423A" width="12" height="72"/>
			</g>
		</g>
		<g id="Rectangle_1_copy">
			<g>
				<rect x="371" y="506" fill="#4D423A" width="12" height="72"/>
			</g>
		</g>
		<g id="Rectangle_1_copy_2">
			<g>
				<rect x="652" y="846" fill="#4D423A" width="72" height="12"/>
			</g>
		</g>
		<g id="Rectangle_1_copy_2_1_">
			<g>
				<rect x="29" y="846" fill="#4D423A" width="72" height="12"/>
			</g>
		</g>
	</g>
</g>
</svg>
